<mxfile host="app.diagrams.net" modified="2021-11-06T10:13:47.459Z" agent="5.0 (Macintosh; Intel Mac OS X 10_15_7) AppleWebKit/537.36 (KHTML, like Gecko) Chrome/86.0.4240.193 Safari/537.36" etag="DjiLRoJz8jrRNomjkTBA" version="15.7.0" type="github">
  <diagram id="GK51W4j2QH9fhmA4uRyo" name="Page-1">
    <mxGraphModel dx="946" dy="536" grid="1" gridSize="10" guides="1" tooltips="1" connect="1" arrows="1" fold="1" page="1" pageScale="1" pageWidth="827" pageHeight="1169" math="0" shadow="0">
      <root>
        <mxCell id="0" />
        <mxCell id="1" parent="0" />
        <mxCell id="0yPwkbWsnB4DWgfW660e-1" value="&lt;pre&gt;&lt;pre&gt;physicMsgTimestamp&lt;/pre&gt;&lt;/pre&gt;" style="rounded=0;whiteSpace=wrap;html=1;fillColor=#ffe6cc;strokeColor=#d79b00;" vertex="1" parent="1">
          <mxGeometry x="80" y="190" width="160" height="60" as="geometry" />
        </mxCell>
        <mxCell id="0yPwkbWsnB4DWgfW660e-4" value="&lt;pre&gt;&lt;pre&gt;logicsMsgTimestamp&lt;/pre&gt;&lt;/pre&gt;" style="rounded=0;whiteSpace=wrap;html=1;fillColor=#dae8fc;strokeColor=#6c8ebf;" vertex="1" parent="1">
          <mxGeometry x="240" y="190" width="160" height="60" as="geometry" />
        </mxCell>
        <mxCell id="0yPwkbWsnB4DWgfW660e-5" value="&lt;pre&gt;&lt;pre&gt;indexMsgTimestamp&lt;/pre&gt;&lt;/pre&gt;" style="rounded=0;whiteSpace=wrap;html=1;fillColor=#fff2cc;strokeColor=#d6b656;" vertex="1" parent="1">
          <mxGeometry x="400" y="190" width="160" height="60" as="geometry" />
        </mxCell>
        <mxCell id="0yPwkbWsnB4DWgfW660e-6" value="commitLog最后一次&lt;br&gt;刷盘时间戳" style="text;html=1;align=center;verticalAlign=middle;resizable=0;points=[];autosize=1;" vertex="1" parent="1">
          <mxGeometry x="100" y="265" width="120" height="30" as="geometry" />
        </mxCell>
        <mxCell id="0yPwkbWsnB4DWgfW660e-7" value="consumeQueue最后一次&lt;br&gt;刷盘时间戳" style="text;html=1;align=center;verticalAlign=middle;resizable=0;points=[];autosize=1;" vertex="1" parent="1">
          <mxGeometry x="250" y="265" width="150" height="30" as="geometry" />
        </mxCell>
        <mxCell id="0yPwkbWsnB4DWgfW660e-8" value="IndexFile最后一次&lt;br&gt;刷盘时间戳" style="text;html=1;align=center;verticalAlign=middle;resizable=0;points=[];autosize=1;" vertex="1" parent="1">
          <mxGeometry x="434" y="265" width="110" height="30" as="geometry" />
        </mxCell>
      </root>
    </mxGraphModel>
  </diagram>
</mxfile>
